<?xml version="1.0" standalone="no"?>
<!DOCTYPE svg PUBLIC "-//W3C//DTD SVG 20010904//EN"
 "http://www.w3.org/TR/2001/REC-SVG-20010904/DTD/svg10.dtd">
<svg version="1.0" xmlns="http://www.w3.org/2000/svg"
 width="750.000000pt" height="750.000000pt" viewBox="0 0 750.000000 750.000000"
 preserveAspectRatio="xMidYMid meet">
<metadata>
Created by potrace 1.14, written by Peter Selinger 2001-2017
</metadata>
<g transform="translate(0.000000,750.000000) scale(0.100000,-0.100000)"
fill="#000000" stroke="none">
<path d="M3668 6743 c-10 -2 -18 -9 -18 -14 0 -5 -7 -9 -15 -9 -8 0 -15 -5
-15 -11 0 -5 -4 -8 -9 -4 -6 3 -14 -2 -19 -11 -5 -9 -13 -16 -18 -16 -15 0
-94 -49 -94 -59 0 -4 -7 -6 -15 -3 -8 4 -15 2 -15 -3 0 -5 -16 -17 -35 -26
-19 -9 -35 -22 -35 -29 0 -9 -3 -8 -10 2 -8 13 -10 12 -10 -3 0 -10 -4 -16 -9
-12 -5 3 -12 1 -16 -5 -4 -6 -11 -7 -17 -4 -6 4 -8 2 -5 -3 4 -6 -7 -16 -23
-23 -16 -7 -27 -17 -23 -23 3 -6 1 -7 -5 -3 -7 4 -29 -5 -49 -19 -21 -14 -44
-25 -51 -25 -7 0 -10 -4 -7 -10 3 -5 0 -10 -8 -10 -8 0 -20 -7 -27 -15 -7 -9
-19 -14 -26 -11 -7 3 -16 -4 -19 -14 -4 -11 -12 -17 -21 -13 -7 3 -14 0 -14
-6 0 -6 -7 -11 -15 -11 -8 0 -15 -3 -15 -7 0 -5 -10 -13 -23 -19 -67 -34 -87
-46 -87 -55 0 -6 -5 -7 -10 -4 -6 3 -12 0 -15 -7 -3 -8 -15 -14 -26 -15 -12
-1 -26 -9 -32 -17 -7 -8 -23 -20 -37 -26 -30 -12 -57 -29 -84 -52 -11 -10 -26
-18 -33 -18 -7 0 -13 -5 -13 -11 0 -5 -4 -8 -9 -5 -5 3 -12 -1 -15 -10 -3 -8
-10 -12 -16 -9 -5 3 -10 1 -10 -5 0 -6 -4 -9 -8 -6 -5 3 -16 -4 -25 -15 -9
-10 -26 -19 -37 -19 -12 0 -19 -4 -16 -9 3 -5 -5 -12 -19 -15 -14 -4 -25 -11
-25 -17 0 -6 -4 -7 -10 -4 -6 3 -10 1 -10 -5 0 -6 -4 -9 -9 -6 -5 3 -12 -1
-15 -10 -3 -8 -10 -12 -16 -9 -5 3 -10 1 -10 -5 0 -6 -4 -8 -10 -5 -5 3 -10
-2 -10 -11 0 -10 -3 -14 -7 -11 -3 4 -12 2 -20 -4 -7 -6 -13 -8 -13 -5 0 7
-15 -4 -51 -36 -10 -10 -22 -18 -26 -18 -21 0 -43 -12 -38 -21 4 -5 -1 -9 -9
-9 -29 0 -17 -31 29 -74 25 -24 45 -49 45 -55 0 -7 5 -9 10 -6 6 3 10 -1 10
-10 0 -9 5 -13 10 -10 6 3 10 -2 10 -12 0 -15 2 -16 10 -3 5 8 10 11 10 6 0
-6 7 -1 16 10 8 10 13 12 9 4 -4 -10 -2 -9 8 3 8 9 19 17 26 17 6 0 11 5 11
12 0 6 3 8 6 5 4 -3 18 2 32 13 13 11 28 17 33 14 5 -3 9 2 9 11 0 9 5 13 10
10 6 -3 10 -1 10 5 0 6 5 8 10 5 6 -3 10 -1 10 5 0 6 4 9 9 6 5 -3 12 1 15 10
4 9 13 14 21 10 9 -3 15 0 15 9 0 9 6 12 17 8 11 -4 14 -3 9 5 -4 7 -2 12 5
12 7 0 21 8 32 18 15 12 19 13 13 2 -5 -10 -2 -9 7 2 7 10 26 22 41 28 16 6
24 15 20 21 -4 8 0 8 15 0 17 -10 20 -9 15 4 -4 10 0 15 10 15 9 0 16 5 16 11
0 5 5 7 10 4 6 -3 10 -1 10 6 0 7 3 10 6 6 4 -3 12 -1 20 6 32 29 44 37 44 32
0 -3 10 1 23 10 13 8 27 12 32 8 4 -5 5 -3 2 3 -7 12 80 61 98 56 5 -2 7 0 3
4 -8 7 51 50 65 46 4 -1 7 3 7 9 0 5 5 7 10 4 6 -3 10 1 10 10 0 9 4 14 9 10
5 -3 13 0 16 6 4 5 14 8 22 5 8 -3 11 -1 8 4 -3 6 -2 10 4 10 5 0 16 6 23 13
7 6 30 21 51 31 20 11 37 23 37 28 0 5 5 6 10 3 6 -3 13 1 16 9 3 9 10 13 15
10 5 -3 12 2 15 10 3 9 10 16 16 16 5 0 6 -6 2 -12 -5 -9 -3 -9 9 1 9 7 14 17
11 22 -3 5 -2 9 3 8 16 -4 63 13 58 21 -3 5 9 11 26 15 17 4 33 13 36 21 3 8
9 11 14 8 5 -3 9 0 9 6 0 6 5 8 10 5 6 -3 10 1 10 10 0 9 4 14 9 11 4 -3 19 3
31 14 13 11 29 20 36 20 7 0 18 9 24 21 11 20 12 20 31 3 10 -9 19 -14 19 -10
0 4 10 -2 22 -13 11 -11 25 -18 29 -15 4 2 12 -4 18 -13 6 -10 11 -12 11 -5 0
7 8 4 20 -8 12 -12 25 -18 30 -15 6 4 10 -1 10 -9 0 -10 6 -13 15 -10 8 4 15
1 15 -6 0 -6 5 -8 10 -5 6 3 10 2 10 -3 0 -9 37 -25 53 -23 4 1 7 -4 7 -9 0
-6 18 -18 40 -27 22 -10 40 -21 40 -26 0 -4 5 -5 10 -2 6 3 10 1 10 -5 0 -6 5
-8 10 -5 6 3 10 1 10 -4 0 -6 6 -11 14 -11 7 0 25 -9 39 -20 14 -11 32 -20 41
-20 9 0 16 -4 16 -10 0 -5 11 -12 25 -16 14 -3 30 -14 35 -23 5 -9 10 -11 10
-4 0 9 7 7 20 -5 12 -9 23 -16 26 -14 2 1 11 -3 19 -10 33 -29 45 -38 45 -33
0 7 57 -23 83 -44 9 -8 17 -11 17 -7 0 4 7 0 16 -8 8 -9 20 -14 25 -11 5 4 9
1 9 -4 0 -6 9 -11 21 -11 11 0 18 -4 15 -8 -3 -5 11 -14 30 -21 18 -7 34 -17
34 -22 0 -6 5 -7 10 -4 6 3 10 1 10 -4 0 -6 3 -10 8 -10 19 3 33 -2 27 -11 -3
-6 1 -7 9 -4 10 4 16 1 16 -10 0 -10 6 -13 15 -10 8 4 15 1 15 -6 0 -7 7 -10
15 -6 9 3 15 0 15 -9 0 -8 3 -14 8 -13 11 4 72 -26 72 -35 0 -5 5 -5 10 -2 6
3 13 0 16 -9 3 -8 12 -12 20 -9 8 3 14 -1 14 -8 0 -7 3 -9 6 -6 4 4 15 -3 25
-15 13 -14 19 -16 19 -7 0 8 6 5 15 -7 8 -12 28 -24 45 -28 17 -3 29 -10 25
-16 -3 -6 0 -7 9 -4 9 3 16 1 16 -5 0 -6 6 -11 14 -11 8 0 21 -7 30 -15 8 -9
17 -15 18 -15 10 4 58 -21 58 -30 0 -6 4 -9 9 -5 5 3 15 0 23 -7 19 -18 78
-50 78 -43 0 4 7 -1 16 -9 8 -9 19 -14 24 -11 4 3 10 -2 14 -10 3 -8 12 -15
21 -15 8 0 15 -5 15 -10 0 -6 3 -9 8 -8 10 4 72 -23 72 -31 0 -4 16 -13 35
-21 19 -7 32 -16 30 -20 -2 -3 5 -7 16 -7 10 -1 26 -9 35 -17 8 -9 26 -19 39
-22 23 -6 29 -42 6 -36 -6 1 -14 -5 -17 -13 -4 -8 -12 -15 -20 -15 -7 0 -23
-10 -35 -22 -12 -13 -18 -17 -14 -9 5 9 -1 7 -19 -4 -14 -10 -26 -22 -26 -27
0 -5 -5 -6 -10 -3 -6 3 -13 -1 -16 -9 -3 -9 -10 -16 -16 -16 -5 0 -6 6 -3 13
4 6 -3 1 -15 -13 -12 -14 -24 -23 -26 -20 -2 3 -13 -3 -24 -13 -12 -10 -26
-15 -32 -11 -7 4 -8 3 -4 -4 6 -11 3 -13 -19 -12 -12 1 -33 -26 -27 -34 3 -5
0 -6 -6 -2 -6 3 -13 2 -17 -4 -4 -6 -11 -8 -16 -5 -5 4 -9 1 -9 -4 0 -6 -7
-11 -15 -11 -8 0 -15 -4 -15 -10 0 -5 -7 -10 -15 -10 -9 0 -18 -7 -22 -16 -3
-8 -12 -13 -19 -10 -8 3 -14 2 -14 -3 0 -4 -12 -14 -27 -22 -16 -8 -31 -18
-35 -24 -5 -6 -8 -5 -8 3 0 7 -4 10 -10 7 -5 -3 -10 -1 -10 4 0 6 -7 11 -15
11 -9 0 -18 6 -21 14 -3 8 -12 12 -20 9 -8 -3 -14 0 -14 6 0 6 -7 11 -16 11
-8 0 -12 5 -9 10 4 6 3 9 -2 8 -16 -5 -73 24 -66 35 3 5 2 7 -4 4 -5 -3 -26 5
-46 19 -20 14 -37 21 -37 17 0 -4 -4 -3 -8 4 -4 6 -14 13 -22 15 -14 3 -21 7
-55 36 -8 7 -15 10 -15 7 0 -3 -13 2 -29 11 -17 10 -28 21 -25 26 3 4 -3 5
-12 1 -13 -5 -15 -3 -9 7 6 9 4 11 -4 6 -7 -5 -18 -1 -25 10 -8 11 -20 15 -30
11 -10 -4 -15 -3 -11 3 3 6 -1 10 -10 10 -9 0 -13 5 -10 10 4 6 3 9 -2 8 -11
-3 -93 41 -93 50 0 4 -9 8 -20 9 -11 1 -29 11 -42 22 -12 12 -28 21 -36 21 -8
0 -20 7 -26 15 -6 8 -22 17 -36 20 -14 2 -33 14 -42 26 -10 12 -18 18 -18 14
0 -5 -10 0 -22 11 -14 13 -19 14 -14 4 5 -9 2 -8 -7 2 -8 10 -17 15 -20 11 -4
-3 -7 -1 -7 6 0 7 -4 9 -10 6 -5 -3 -10 -2 -10 3 0 5 -18 17 -40 28 -22 10
-40 22 -40 27 0 4 -7 7 -16 7 -9 0 -25 9 -35 21 -9 11 -21 20 -26 20 -15 -1
-63 24 -63 32 0 5 -4 5 -10 2 -5 -3 -10 -1 -10 4 0 6 -7 11 -15 11 -9 0 -18 7
-21 15 -4 8 -15 15 -25 15 -10 0 -19 5 -19 11 0 5 -4 8 -9 5 -5 -3 -14 1 -21
9 -7 8 -17 15 -22 15 -6 0 -22 8 -36 18 -45 31 -58 32 -92 7 -18 -14 -37 -22
-42 -19 -4 3 -11 -2 -14 -10 -3 -9 -14 -16 -24 -16 -10 0 -21 -7 -24 -16 -3
-8 -10 -12 -16 -9 -5 3 -10 1 -10 -5 0 -6 -4 -8 -10 -5 -5 3 -10 1 -10 -5 0
-6 -4 -9 -9 -6 -5 3 -12 -1 -15 -10 -3 -8 -10 -12 -16 -9 -6 3 -13 -1 -16 -9
-3 -9 -9 -14 -14 -11 -4 2 -16 -3 -26 -13 -11 -9 -26 -18 -34 -20 -8 -2 -21
-10 -27 -19 -7 -9 -13 -13 -13 -9 0 5 -6 3 -13 -3 -8 -6 -18 -7 -22 -3 -5 4
-5 1 -1 -5 6 -11 1 -15 -20 -12 -3 0 -13 -8 -22 -18 -9 -10 -24 -19 -32 -21
-8 -2 -17 -7 -20 -11 -7 -11 -94 -55 -98 -50 -2 2 -8 -4 -13 -13 -6 -10 -17
-18 -24 -18 -8 0 -15 -3 -15 -8 0 -4 -20 -16 -44 -27 -24 -11 -42 -23 -40 -27
5 -8 0 -10 -28 -12 -7 -1 -23 -11 -36 -23 -14 -13 -28 -20 -33 -17 -5 3 -9 0
-9 -7 0 -7 -3 -10 -6 -6 -3 3 -13 -1 -22 -9 -10 -8 -21 -14 -25 -14 -4 1 -15
-6 -23 -15 -9 -8 -20 -12 -26 -9 -6 4 -8 3 -5 -3 5 -8 -41 -38 -51 -33 -2 1
-10 -7 -18 -17 -7 -10 -14 -14 -14 -10 0 5 -12 -1 -26 -12 -15 -11 -31 -18
-37 -14 -5 3 -7 2 -4 -3 3 -6 -3 -16 -15 -23 -16 -10 -19 -10 -13 1 3 7 1 6
-7 -3 -7 -9 -23 -19 -36 -23 -12 -4 -22 -11 -22 -15 0 -4 -16 -13 -35 -21 -19
-8 -35 -18 -35 -22 0 -5 -4 -7 -9 -4 -5 3 -12 -1 -15 -10 -3 -8 -10 -12 -16
-9 -5 3 -10 2 -10 -3 0 -6 -13 -15 -30 -21 -16 -5 -30 -15 -30 -22 0 -7 -3 -9
-6 -6 -4 4 -19 -2 -34 -13 -16 -11 -33 -20 -39 -20 -6 0 -11 -4 -11 -10 0 -5
-7 -10 -16 -10 -14 0 -15 -2 -3 -17 9 -10 9 -14 2 -10 -9 6 -11 -2 -8 -29 3
-20 8 -41 12 -48 4 -6 -1 -5 -10 3 -16 12 -17 12 -11 -5 4 -10 12 -25 18 -33
8 -11 8 -13 -1 -8 -9 6 -11 -2 -8 -29 3 -20 8 -41 12 -48 4 -6 -1 -5 -10 3
-16 12 -17 12 -11 -5 4 -10 12 -25 18 -33 8 -11 8 -13 0 -8 -7 4 -11 -5 -11
-23 0 -18 4 -27 11 -23 8 5 8 3 0 -8 -6 -8 -10 -35 -8 -61 1 -27 -2 -48 -8
-48 -5 0 -2 -7 7 -16 11 -11 13 -20 6 -27 -5 -5 -7 -16 -4 -23 3 -8 0 -14 -7
-14 -7 0 -5 -6 5 -16 11 -11 13 -20 6 -27 -5 -5 -7 -16 -4 -23 3 -8 0 -14 -7
-14 -7 0 -5 -6 5 -16 11 -11 13 -20 5 -28 -5 -7 -7 -16 -3 -20 4 -4 1 -11 -7
-16 -8 -6 -10 -10 -4 -10 7 0 15 -7 18 -16 3 -8 2 -12 -4 -9 -10 6 -4 -59 7
-79 4 -6 -1 -5 -10 3 -16 12 -17 12 -11 -5 4 -10 12 -25 18 -33 8 -11 8 -13
-1 -8 -9 6 -11 -2 -8 -29 3 -20 8 -41 12 -48 4 -6 -1 -5 -10 3 -16 13 -17 12
-8 -12 6 -14 8 -38 5 -52 -3 -15 0 -33 6 -40 6 -8 7 -16 2 -19 -10 -6 -7 -60
5 -79 4 -7 -1 -6 -10 2 -16 12 -17 12 -11 -5 4 -10 12 -25 18 -33 8 -11 8 -13
-1 -8 -9 6 -11 -2 -8 -29 3 -20 8 -41 12 -48 4 -6 -1 -5 -10 3 -16 12 -17 12
-11 -5 4 -10 12 -25 18 -33 8 -11 8 -13 -1 -8 -13 8 -12 -30 2 -52 6 -10 4
-12 -4 -6 -10 5 -11 -2 -7 -29 4 -22 2 -36 -5 -36 -6 0 -3 -7 6 -16 11 -11 13
-20 6 -27 -5 -5 -7 -16 -4 -23 3 -8 0 -14 -7 -14 -7 0 -5 -6 5 -16 11 -11 13
-20 6 -27 -5 -5 -7 -16 -4 -23 3 -8 0 -14 -7 -14 -7 0 -5 -6 5 -16 11 -11 13
-20 5 -28 -5 -7 -7 -16 -3 -20 4 -4 1 -11 -7 -16 -8 -6 -10 -10 -4 -10 7 0 15
-7 18 -16 3 -9 2 -12 -5 -9 -6 4 -10 1 -8 -6 4 -31 -2 -41 -31 -50 -16 -6 -30
-15 -30 -20 0 -5 -7 -9 -16 -9 -8 0 -12 -4 -9 -10 3 -6 -1 -7 -9 -4 -9 3 -16
1 -16 -5 0 -6 -6 -11 -14 -11 -7 0 -25 -11 -40 -25 -14 -13 -26 -19 -26 -13 0
6 -8 1 -19 -10 -10 -12 -20 -20 -22 -17 -3 2 -18 -7 -34 -21 -16 -13 -35 -22
-42 -19 -8 2 -12 1 -8 -4 3 -5 -8 -15 -25 -23 -16 -7 -30 -17 -30 -21 0 -5 -5
-5 -10 -2 -6 3 -13 -1 -16 -9 -3 -9 -9 -16 -14 -16 -13 0 -130 -73 -130 -81 0
-5 -6 -6 -12 -4 -10 4 -13 37 -12 125 1 72 -2 117 -8 114 -5 -3 -4 3 3 14 10
16 10 23 0 35 -6 9 -8 18 -3 21 5 3 9 44 9 90 0 49 -4 83 -9 80 -5 -4 -4 3 3
14 10 16 10 23 0 35 -6 9 -8 18 -3 21 5 3 9 44 9 90 0 49 -4 83 -9 80 -5 -4
-4 3 3 14 10 16 10 23 0 35 -6 9 -8 18 -3 21 5 3 9 44 9 90 0 59 -3 83 -11 79
-8 -5 -8 -2 0 8 14 18 16 82 3 73 -6 -3 -5 3 2 14 10 16 10 23 0 35 -6 9 -8
18 -3 21 5 3 9 44 9 90 0 59 -3 83 -11 79 -8 -5 -8 -2 0 8 13 16 15 101 2 93
-4 -3 -8 0 -8 6 0 7 -7 10 -15 6 -8 -3 -15 -2 -15 2 0 12 -80 43 -92 36 -7 -4
-8 -2 -4 4 6 11 -6 16 -26 13 -5 0 -8 4 -8 11 0 6 -3 8 -7 5 -3 -4 -12 -2 -20
4 -10 9 -13 8 -14 -2 -1 -8 -2 -21 -3 -29 -1 -8 3 -21 9 -29 7 -10 7 -13 0 -9
-12 7 -14 -360 -2 -379 4 -6 4 -14 -1 -17 -11 -6 -9 -57 3 -75 5 -9 4 -12 -1
-8 -12 7 -12 -282 -1 -300 4 -6 4 -14 -1 -17 -10 -6 -9 -127 1 -143 4 -6 4
-14 -1 -17 -10 -6 -9 -127 1 -143 4 -6 4 -14 -1 -17 -10 -6 -9 -127 1 -143 4
-6 4 -14 -1 -17 -10 -6 -9 -187 1 -203 4 -6 2 -15 -4 -18 -5 -4 -8 -13 -5 -20
5 -15 -27 -49 -37 -38 -4 3 -7 1 -7 -6 0 -7 -4 -9 -10 -6 -5 3 -10 1 -10 -4 0
-6 -6 -11 -14 -11 -8 0 -16 -7 -20 -15 -3 -9 -12 -12 -22 -8 -12 4 -15 3 -10
-5 4 -7 1 -12 -7 -12 -8 0 -24 -9 -37 -20 -12 -11 -27 -17 -31 -14 -5 3 -9 0
-9 -5 0 -6 -7 -11 -16 -11 -8 0 -13 -4 -10 -9 6 -9 -41 -26 -59 -22 -5 2 -7 0
-3 -4 4 -4 1 -14 -7 -21 -17 -17 -28 -18 -20 -1 4 6 -5 -1 -19 -16 -14 -15
-26 -22 -26 -15 0 8 -5 6 -11 -4 -5 -10 -17 -18 -25 -18 -8 0 -13 -4 -10 -9 3
-5 -5 -12 -19 -15 -14 -4 -25 -11 -25 -17 0 -6 -5 -7 -10 -4 -6 3 -10 1 -10
-5 0 -6 -4 -9 -10 -5 -5 3 -17 -1 -27 -10 -37 -33 -95 -65 -105 -59 -6 4 -8 3
-5 -3 6 -9 -52 -50 -65 -45 -5 1 -8 -2 -8 -7 0 -10 -39 -27 -53 -23 -5 1 -6
-2 -3 -7 4 -5 -9 -17 -29 -27 -36 -17 -54 -34 -36 -34 6 0 11 -9 11 -20 0 -11
7 -20 15 -20 8 0 14 -3 13 -7 -1 -5 3 -18 10 -30 7 -13 10 -23 6 -23 -3 0 4
-9 17 -21 13 -11 17 -18 9 -14 -8 4 -5 -3 8 -14 13 -11 21 -25 17 -31 -3 -5
-2 -10 4 -10 6 0 15 9 21 20 6 11 15 18 21 15 5 -4 9 1 9 10 0 9 5 13 11 10 6
-4 21 3 35 16 13 12 24 19 24 15 0 -4 19 7 42 26 23 18 38 26 33 18 -8 -15 33
16 46 34 4 5 12 5 19 1 8 -5 11 -4 7 2 -7 10 20 28 36 24 4 0 10 6 13 14 3 8
10 12 15 9 5 -3 12 2 15 10 3 9 10 13 15 10 5 -3 9 -1 9 5 0 6 7 7 17 4 11 -4
14 -3 9 5 -4 7 -2 12 3 12 22 0 26 2 34 16 5 8 12 12 18 9 5 -4 9 -1 9 4 0 6
7 11 16 11 8 0 12 5 9 10 -5 9 15 15 38 11 4 0 7 6 7 15 0 8 5 12 10 9 5 -3
10 -1 10 4 0 6 3 10 8 10 19 -3 33 2 27 10 -3 5 -1 12 5 16 5 3 10 1 10 -5 0
-6 7 -4 16 5 9 9 23 14 30 11 8 -3 11 0 8 8 -3 9 7 18 26 25 17 6 29 15 25 21
-3 5 0 7 8 4 8 -3 20 2 27 11 7 8 18 15 25 15 7 0 18 7 25 15 7 8 22 15 33 15
11 0 17 3 14 6 -6 7 43 39 76 50 9 4 17 11 17 16 0 5 5 6 10 3 5 -3 10 -1 10
4 0 6 7 11 15 11 8 0 15 3 15 8 0 4 14 15 31 24 18 11 27 13 24 5 -4 -6 3 -1
14 12 12 13 21 19 21 15 0 -5 5 -1 11 10 9 15 13 16 20 5 7 -11 9 -10 9 4 0 9
7 17 15 17 8 0 15 5 15 11 0 5 5 7 10 4 6 -3 10 -1 10 5 0 6 4 9 9 6 5 -3 12
1 15 10 4 9 9 14 12 11 3 -3 28 9 54 28 26 19 50 32 53 29 2 -2 10 2 17 11 7
8 18 15 25 15 7 0 16 7 19 16 3 8 10 12 16 9 5 -3 10 -1 10 6 0 7 3 10 6 6 4
-3 13 1 21 9 8 8 19 11 25 8 6 -4 8 -2 5 3 -6 10 14 25 35 27 4 1 14 10 23 21
9 11 14 13 10 5 -4 -10 -2 -10 8 2 11 14 16 15 26 5 10 -9 11 -8 5 7 -6 16 -4
18 10 13 10 -4 15 -3 11 3 -3 6 1 10 9 10 9 0 16 5 16 11 0 6 7 8 16 5 8 -3
12 -2 9 4 -3 6 -1 10 4 10 22 0 26 2 34 16 4 8 15 14 22 14 8 0 15 5 15 10 0
6 7 10 15 10 8 0 15 5 15 11 0 6 6 9 13 6 7 -3 19 4 26 15 7 11 19 17 27 14 8
-3 14 1 14 10 0 8 4 13 8 10 5 -3 18 4 30 14 12 11 26 20 32 20 5 0 10 5 10
12 0 6 3 9 6 5 5 -5 37 12 129 70 11 7 33 20 50 29 16 9 35 23 43 30 7 8 19
14 27 14 7 0 16 7 19 16 3 8 10 12 16 9 5 -3 10 -2 10 4 0 6 6 8 14 5 8 -3 16
3 19 16 3 12 10 19 16 15 6 -3 18 1 27 10 9 9 23 14 31 11 8 -3 11 -2 8 4 -6
9 34 36 48 32 4 -1 7 2 7 8 0 5 7 10 16 10 9 0 12 5 8 12 -5 8 -2 9 9 5 10 -3
17 -2 17 3 0 5 9 12 20 15 11 4 17 11 14 17 -5 7 -1 9 9 5 10 -3 17 -2 17 4 0
6 4 8 9 4 5 -3 17 5 25 17 9 12 16 19 16 14 0 -5 7 -3 15 4 8 7 15 9 15 4 0
-5 5 -1 11 9 6 9 14 15 19 12 4 -3 11 2 14 11 3 8 10 12 16 9 5 -3 10 -1 10 4
0 6 6 11 14 11 8 0 16 4 18 9 2 5 10 11 18 13 8 2 23 11 34 21 11 9 26 17 33
17 7 0 13 5 13 10 0 6 7 10 15 10 8 0 15 5 15 11 0 5 4 8 9 5 5 -3 12 1 15 10
3 8 10 12 16 9 5 -3 10 -1 10 5 0 6 5 8 10 5 6 -3 10 -2 10 3 0 9 36 29 54 30
5 0 13 7 18 16 5 9 13 14 19 11 5 -4 9 1 9 9 0 10 7 13 20 11 11 -2 18 0 15 4
-4 7 11 17 35 24 3 0 14 9 24 19 11 10 28 18 38 18 11 0 17 4 14 9 -3 5 3 11
14 14 11 3 24 6 28 7 4 2 13 11 20 22 7 10 17 16 21 14 11 -7 62 29 54 39 -5
4 0 5 10 2 9 -4 17 -3 17 2 0 5 13 14 30 21 16 7 27 17 23 23 -3 5 -2 7 4 4 5
-3 26 5 46 18 20 14 41 25 46 25 6 0 11 5 11 10 0 6 9 10 21 10 11 0 18 4 15
9 -3 5 5 12 19 15 14 4 25 11 25 17 0 6 5 7 10 4 6 -3 10 -1 10 4 0 6 7 11 15
11 8 0 15 4 15 9 0 5 10 13 22 17 12 3 31 15 42 25 11 11 26 17 33 15 7 -3 13
2 13 10 0 8 4 13 9 9 5 -3 16 2 25 11 9 8 20 12 26 9 6 -4 9 -1 8 7 -2 7 3 12
10 10 6 -1 12 2 12 8 0 5 5 10 11 10 6 0 22 9 36 20 14 11 30 17 36 13 6 -3 7
-1 3 5 -4 7 -2 12 4 12 7 0 32 14 57 30 24 17 48 30 54 30 5 0 9 5 9 10 0 6 6
9 13 8 6 -2 11 2 10 9 -2 7 4 10 12 7 8 -4 15 -1 15 5 0 6 5 11 11 11 6 0 30
14 55 30 24 17 44 28 44 25 0 -3 10 3 22 15 12 11 28 20 35 20 7 0 13 5 13 10
0 6 7 10 15 10 7 0 19 8 24 18 6 10 11 12 11 4 0 -7 5 -10 10 -7 6 4 8 11 5
16 -5 8 15 14 37 10 4 0 10 8 13 19 4 11 11 18 16 14 6 -3 17 2 25 12 9 11 12
12 8 4 -4 -8 3 -5 15 8 20 20 34 26 54 23 4 0 7 6 7 14 0 13 18 20 43 16 4 0
7 6 7 15 0 10 5 14 16 10 8 -3 12 -2 9 4 -3 6 1 10 10 10 8 0 23 9 32 20 10
11 25 20 35 20 9 0 20 5 23 10 4 6 11 7 17 4 7 -5 8 -2 4 5 -5 8 0 14 13 18
12 3 21 10 21 15 0 6 6 8 14 5 8 -3 17 1 20 10 4 9 9 13 12 10 4 -3 15 3 27
14 11 10 27 19 34 19 7 0 13 5 13 10 0 6 7 10 15 10 9 0 18 6 21 14 3 8 11 13
18 10 7 -3 19 2 26 10 7 9 16 13 21 10 5 -3 8 -2 7 3 -2 4 0 8 3 8 3 0 22 12
41 27 20 15 38 24 42 21 3 -4 6 -2 6 4 0 5 18 18 40 29 22 10 40 22 40 27 0 4
7 7 15 7 8 0 15 5 15 11 0 6 7 8 16 5 8 -3 13 -2 11 2 -6 8 13 26 33 30 8 2
18 9 22 15 4 7 8 9 8 4 0 -4 11 0 25 9 14 9 22 21 18 27 -4 6 -1 7 6 3 7 -5
19 0 27 10 9 11 13 13 9 7 -3 -7 -1 -13 4 -13 6 0 11 4 11 10 0 5 18 18 40 28
22 10 37 21 34 25 -4 4 0 7 9 7 10 0 17 7 17 15 0 8 -3 15 -7 14 -17 -3 -52
14 -57 27 -3 7 -12 11 -21 8 -8 -3 -15 -1 -15 5 0 6 -7 11 -15 11 -8 0 -15 5
-15 10 0 6 -8 10 -19 10 -10 0 -24 7 -31 15 -7 8 -16 12 -21 9 -5 -3 -9 0 -9
5 0 6 -7 11 -15 11 -8 0 -15 3 -15 8 0 4 -25 18 -55 32 -30 14 -55 28 -55 33
0 4 -9 7 -20 7 -10 0 -24 8 -29 18 -6 9 -11 13 -11 8 0 -5 -7 -2 -16 5 -9 7
-23 14 -32 15 -8 2 -19 10 -24 19 -5 8 -13 13 -18 10 -5 -3 -11 -1 -15 5 -4 6
-10 8 -15 5 -4 -3 -11 2 -14 11 -3 8 -10 12 -16 9 -5 -3 -10 -1 -10 4 0 6 -6
11 -14 11 -8 0 -21 7 -30 15 -8 9 -19 16 -23 17 -27 4 -43 11 -43 19 0 5 -7 9
-15 9 -8 0 -15 5 -15 12 0 6 -3 8 -7 5 -3 -4 -12 1 -20 11 -8 9 -12 11 -8 5
10 -20 -9 -15 -25 6 -7 11 -17 18 -22 15 -4 -3 -8 0 -8 5 0 6 -3 10 -7 9 -10
-2 -46 13 -53 22 -3 3 -28 18 -57 32 -29 14 -49 28 -46 32 4 3 -3 6 -15 6 -12
0 -22 4 -22 10 0 5 -3 9 -7 9 -21 -3 -33 2 -27 12 4 7 1 10 -7 7 -7 -2 -22 4
-33 14 -11 10 -25 17 -31 15 -5 -2 -18 5 -27 15 -9 11 -19 19 -22 19 -24 -3
-36 1 -31 9 6 9 -8 14 -27 11 -5 0 -8 4 -8 9 0 6 -9 10 -20 10 -11 0 -20 4
-20 8 0 5 -22 19 -50 32 -27 13 -50 27 -50 32 0 5 -5 6 -10 3 -6 -3 -13 1 -16
9 -3 9 -10 14 -14 11 -5 -3 -25 6 -46 20 -20 14 -39 23 -42 20 -3 -2 -13 5
-23 16 -9 11 -21 20 -26 21 -13 0 -111 48 -115 56 -2 4 -34 23 -73 42 -38 19
-71 38 -73 43 -2 4 -13 7 -23 7 -11 0 -17 5 -14 10 3 6 -3 10 -14 10 -12 0
-21 4 -21 8 0 4 -16 14 -35 21 -19 7 -33 16 -31 20 3 4 -3 7 -13 8 -10 1 -40
15 -66 32 -27 17 -55 31 -62 31 -7 0 -13 5 -13 10 0 6 -7 10 -15 10 -8 0 -15
5 -15 11 0 5 -4 8 -9 4 -5 -3 -16 2 -24 10 -9 8 -20 15 -26 15 -6 0 -11 4 -11
10 0 6 -3 9 -7 9 -25 -4 -43 3 -43 17 0 8 -5 12 -10 9 -6 -3 -23 3 -39 14 -16
12 -37 21 -46 21 -9 0 -13 5 -10 10 6 9 -8 14 -27 11 -5 0 -8 4 -8 9 0 10 -12
11 -42 3z m62 -1146 c0 -4 4 -6 9 -3 5 3 14 -1 21 -9 7 -8 19 -15 26 -15 8 0
14 -4 14 -10 0 -5 3 -9 8 -8 12 3 62 -25 62 -34 0 -5 5 -6 10 -3 6 3 10 1 10
-5 0 -6 5 -8 10 -5 6 3 10 2 10 -4 0 -9 38 -27 52 -23 3 1 12 -5 18 -13 7 -8
19 -15 28 -15 8 0 12 -3 8 -7 -3 -4 18 -19 48 -34 31 -14 52 -29 49 -33 -4 -3
3 -6 15 -6 12 0 22 -3 22 -8 0 -4 18 -15 40 -25 22 -9 40 -21 40 -27 0 -5 3
-9 8 -8 4 1 17 -3 28 -10 12 -6 25 -8 29 -4 5 4 5 1 1 -5 -4 -7 -2 -13 4 -13
6 0 24 -10 40 -22 16 -12 33 -19 36 -15 4 4 14 -2 21 -13 8 -11 18 -18 22 -15
5 2 21 -7 35 -20 15 -14 32 -23 37 -20 5 4 9 2 9 -3 0 -5 8 -12 18 -15 9 -4
40 -20 67 -37 28 -17 58 -33 68 -37 9 -3 17 -9 17 -14 0 -5 6 -9 13 -9 7 0 24
-10 37 -22 14 -13 26 -22 27 -20 8 6 34 1 29 -6 -5 -9 73 -48 87 -44 9 2 9
-11 1 -32 -3 -9 -10 -14 -14 -11 -5 3 -15 -2 -24 -11 -9 -8 -20 -12 -26 -9 -6
4 -9 1 -8 -7 2 -7 -4 -13 -12 -13 -8 0 -21 -8 -28 -18 -7 -9 -18 -15 -23 -12
-5 4 -9 3 -9 -2 0 -4 -14 -14 -30 -21 -17 -8 -27 -18 -24 -24 4 -6 2 -8 -4 -4
-6 3 -18 -1 -26 -10 -9 -8 -16 -12 -16 -8 0 3 -6 1 -13 -5 -8 -6 -18 -7 -22
-3 -5 4 -5 2 -1 -5 4 -8 -2 -15 -19 -19 -14 -3 -22 -11 -18 -17 4 -6 0 -8 -10
-4 -11 4 -17 1 -17 -9 0 -8 -5 -12 -11 -9 -6 4 -20 -2 -32 -13 -12 -12 -26
-22 -32 -24 -5 -2 -9 -6 -8 -10 2 -4 -4 -5 -12 -2 -8 4 -15 1 -15 -5 0 -6 -7
-11 -15 -11 -8 0 -15 -5 -15 -11 0 -5 -4 -7 -10 -4 -5 3 -10 1 -10 -4 0 -6 -7
-11 -16 -11 -8 0 -12 -4 -9 -10 3 -5 0 -7 -8 -4 -8 3 -17 -2 -21 -11 -3 -9
-10 -13 -16 -10 -5 3 -10 1 -10 -5 0 -7 -7 -10 -15 -6 -9 3 -15 0 -15 -10 0
-8 -4 -12 -10 -9 -5 3 -10 1 -10 -4 0 -6 -7 -11 -15 -11 -7 0 -19 -8 -24 -17
-6 -10 -11 -14 -11 -10 0 5 -13 -1 -29 -12 -15 -11 -31 -18 -35 -14 -3 3 -6
-1 -6 -10 0 -11 -7 -15 -21 -12 -12 3 -19 1 -15 -2 3 -4 -14 -18 -39 -33 -25
-15 -42 -30 -38 -34 4 -4 1 -4 -8 -1 -8 3 -28 -5 -44 -19 -16 -14 -32 -23 -37
-20 -4 3 -8 0 -8 -6 0 -6 -4 -8 -10 -5 -5 3 -10 1 -10 -5 0 -6 -11 -15 -25
-20 -14 -5 -25 -14 -25 -19 0 -5 -9 -8 -20 -6 -11 2 -18 0 -15 -4 5 -9 -23
-26 -37 -23 -5 1 -8 -2 -8 -7 0 -5 -12 -16 -27 -24 -16 -8 -45 -24 -65 -35
-21 -11 -34 -23 -30 -27 4 -5 -1 -5 -10 -2 -12 4 -18 1 -18 -8 0 -8 -3 -14 -7
-14 -21 3 -33 -2 -27 -13 4 -6 3 -8 -4 -4 -6 3 -18 -1 -26 -10 -9 -8 -16 -12
-16 -8 0 4 -7 -1 -16 -12 -8 -10 -13 -12 -9 -4 4 8 -2 5 -13 -7 -22 -25 -38
-31 -26 -10 4 6 -3 3 -14 -8 -37 -36 -50 -44 -56 -38 -3 4 -6 1 -6 -6 0 -7 -4
-9 -10 -6 -5 3 -10 1 -10 -4 0 -6 -7 -11 -15 -11 -8 0 -19 -9 -25 -20 -6 -11
-16 -20 -23 -20 -7 0 -6 4 3 10 10 7 11 10 2 10 -7 0 -15 -7 -19 -16 -3 -8
-12 -13 -20 -10 -8 3 -12 2 -10 -2 6 -8 -13 -26 -33 -30 -8 -2 -18 -9 -22 -15
-4 -7 -8 -8 -8 -4 0 4 -10 -1 -22 -13 -12 -11 -27 -20 -34 -20 -7 0 -14 -5
-16 -10 -2 -6 -13 -12 -25 -13 -12 0 -19 -5 -17 -9 3 -4 0 -8 -5 -8 -6 0 -20
-9 -31 -20 -12 -12 -20 -15 -20 -7 0 6 -5 4 -11 -5 -5 -10 -17 -18 -24 -18 -8
0 -15 -4 -15 -10 0 -5 -7 -10 -15 -10 -8 0 -15 -5 -15 -11 0 -5 -4 -8 -8 -5
-5 3 -18 -4 -30 -14 -12 -11 -26 -20 -32 -20 -5 0 -10 -5 -10 -11 0 -5 -5 -7
-10 -4 -6 3 -13 -1 -16 -9 -3 -9 -10 -13 -15 -11 -4 3 -17 -3 -28 -14 -11 -11
-22 -17 -25 -13 -3 3 -6 0 -6 -7 0 -7 -5 -11 -12 -9 -6 2 -20 -4 -30 -14 -10
-10 -25 -18 -33 -18 -8 0 -15 -3 -15 -8 0 -4 -17 -16 -37 -27 -21 -11 -47 -28
-57 -37 -10 -10 -23 -15 -28 -12 -4 3 -8 0 -8 -6 0 -6 -4 -8 -10 -5 -5 3 -10
-1 -10 -10 0 -9 -4 -14 -9 -10 -5 3 -17 -2 -25 -11 -9 -8 -16 -12 -16 -7 0 4
-5 1 -10 -7 -8 -13 -11 -13 -22 -1 -11 12 -10 12 2 6 12 -7 13 -6 4 6 -15 18
-15 69 0 69 7 0 8 3 1 8 -14 9 -14 155 0 164 7 5 6 8 -1 8 -15 0 -14 70 1 70
7 0 7 3 0 8 -14 9 -16 154 -2 145 6 -4 7 -1 1 8 -13 22 -14 69 -1 69 8 0 8 3
2 8 -14 9 -14 155 0 164 7 5 6 8 -1 8 -15 0 -14 70 1 70 7 0 7 3 0 8 -14 9
-16 154 -2 145 6 -4 7 -1 1 8 -13 22 -14 69 -1 69 8 0 8 3 2 8 -14 9 -14 155
0 164 6 5 6 8 -2 8 -14 0 -13 62 2 72 7 5 6 8 -1 8 -7 0 -10 23 -10 61 1 52 4
62 24 73 12 7 19 15 16 19 -4 4 2 7 14 7 12 0 31 9 41 19 11 11 22 17 25 13 3
-3 6 0 6 6 0 6 7 9 17 5 12 -5 14 -3 8 7 -6 10 -4 12 9 7 13 -5 17 -3 13 7 -4
10 -1 13 7 10 7 -3 21 3 31 13 10 9 25 18 34 20 8 1 17 7 19 12 2 6 8 11 14
11 5 0 23 9 39 21 16 11 29 17 29 12 0 -4 5 0 11 10 6 9 14 15 20 12 5 -4 9
-1 9 5 0 6 5 8 10 5 6 -3 10 -1 10 4 0 6 6 11 14 11 8 0 17 7 20 16 4 9 9 14
13 10 3 -3 15 2 26 11 15 13 19 14 13 3 -6 -11 -4 -11 6 1 7 9 23 19 36 23 12
4 20 11 17 16 -4 7 31 23 48 21 4 -1 7 3 7 8 0 8 37 24 53 22 4 -1 7 6 7 14 0
8 9 15 20 15 11 0 20 5 20 10 0 6 7 10 15 10 7 0 18 7 23 16 5 9 12 15 15 15
21 -3 27 0 21 12 -5 7 -2 7 10 -2 14 -12 17 -12 14 0 -2 8 7 15 20 17 12 2 22
7 22 12 0 5 9 12 20 15 11 4 17 11 14 17 -5 7 -2 8 5 4 7 -5 20 -1 29 7 9 9
24 17 32 19 14 3 29 12 53 34 7 6 23 15 35 18 12 4 22 12 22 17 0 5 7 9 15 9
8 0 15 5 15 11 0 5 4 8 10 4 5 -3 18 2 30 12 11 10 22 16 23 13 1 -3 13 5 27
18 13 12 30 22 37 22 7 0 13 5 13 11 0 5 4 8 9 4 5 -3 12 -1 16 5 7 11 45 -9
45 -23z"/>
<path d="M6630 5186 c-85 -51 -261 -156 -390 -233 -129 -77 -415 -247 -635
-378 -220 -131 -526 -313 -680 -405 -154 -92 -415 -247 -580 -345 -528 -313
-1139 -677 -1185 -705 -25 -15 -189 -114 -365 -219 -176 -105 -331 -197 -345
-205 -14 -9 -167 -99 -340 -202 -173 -103 -368 -218 -432 -257 l-117 -71 27
-18 c15 -11 90 -60 167 -110 77 -50 203 -132 280 -183 77 -51 257 -168 400
-262 143 -93 445 -291 670 -438 226 -148 460 -301 520 -340 61 -40 119 -77
130 -82 17 -8 53 10 220 113 234 145 436 267 449 273 6 2 15 8 21 13 10 9 407
252 735 451 91 55 171 105 178 112 11 10 5 27 -37 95 -28 45 -51 86 -51 91 0
5 -2 9 -5 9 -3 0 -63 -35 -133 -78 -115 -72 -229 -141 -274 -167 -9 -5 -43
-26 -75 -46 -77 -48 -708 -433 -850 -520 -61 -37 -122 -75 -136 -83 -23 -16
-29 -13 -303 165 -153 100 -382 250 -509 333 -126 84 -322 212 -435 285 -392
254 -562 368 -562 376 0 8 236 154 378 235 l52 29 98 -56 c55 -31 180 -102
279 -158 99 -57 216 -123 260 -147 44 -25 98 -55 120 -68 22 -13 65 -36 95
-53 30 -17 118 -66 195 -110 175 -101 253 -145 284 -160 26 -13 11 -20 256
118 77 43 165 91 195 108 30 16 111 61 178 99 68 38 145 81 170 95 26 14 79
43 117 64 39 22 194 108 345 192 l275 152 0 817 0 816 105 64 c58 34 109 65
114 67 5 2 83 48 173 102 90 55 165 99 168 99 3 0 5 -297 5 -660 l0 -660 110
0 110 0 -1 673 c0 369 0 698 1 729 l0 57 58 34 c108 64 657 390 719 427 l63
37 -53 88 c-28 49 -56 90 -62 91 -5 2 -80 -39 -165 -90z m-1565 -1876 c0 -439
-4 -682 -10 -689 -11 -10 -123 -73 -575 -324 -30 -17 -71 -39 -90 -50 -19 -11
-166 -93 -326 -182 l-291 -161 -104 59 c-57 33 -122 69 -144 81 -103 57 -250
140 -480 271 -137 78 -277 157 -310 175 -107 59 -105 54 -44 93 30 18 133 80
229 137 96 57 191 113 210 125 19 13 215 129 435 260 220 131 432 256 470 280
39 23 205 122 370 220 165 98 312 185 326 195 14 10 48 30 75 45 27 14 92 53
144 85 52 33 100 60 105 60 7 0 10 -231 10 -680z"/>
</g>
</svg>
